<svg width="320" height="320" viewBox="0 0 320 320" fill="none" xmlns="http://www.w3.org/2000/svg">
  <rect width="320" height="320" rx="48" fill="#16202C"/>
  <circle cx="160" cy="160" r="118" fill="#74536C"/>
  <circle cx="246" cy="80" r="28" fill="#F18A73"/>
  <path d="M229 90L247 80L247 98L229 90Z" fill="#FFF0EC"/>
  <rect x="222" y="86" width="10" height="8" rx="3" fill="#FFF0EC"/>
  <path d="M249 78L257 72" stroke="#FFF0EC" stroke-width="4" stroke-linecap="round"/>
  <path d="M250 90H260" stroke="#FFF0EC" stroke-width="4" stroke-linecap="round"/>
  <path d="M249 102L257 108" stroke="#FFF0EC" stroke-width="4" stroke-linecap="round"/>
  <path d="M86 270C86 225.818 121.817 190 166 190H174C218.183 190 254 225.818 254 270V278H86V270Z" fill="#C16557"/>
  <path d="M122 220L160 206L198 220L190 278H130L122 220Z" fill="#FFF0EC"/>
  <path d="M134 229H186" stroke="#D78A74" stroke-width="5"/>
  <circle cx="147" cy="245" r="4" fill="#D78A74"/>
  <circle cx="160" cy="245" r="4" fill="#D78A74"/>
  <circle cx="173" cy="245" r="4" fill="#D78A74"/>
  <circle cx="161" cy="142" r="62" fill="#F0C3A3"/>
  <path d="M103 132C103 92.2355 135.235 60 175 60H188C218.928 60 244 85.0721 244 116V136L223 116L205 121C195.667 109.667 179.4 104 156.2 104C132.733 104 115 113.333 103 132Z" fill="#5A374B"/>
  <path d="M117 151C123 126.333 138.667 114 164 114C189.333 114 208.333 126.333 221 151V181C204.333 196 184.333 203.5 161 203.5C143 203.5 128.333 196 117 181V151Z" fill="#F3CBB1"/>
  <circle cx="145" cy="147" r="5" fill="#402A23"/>
  <circle cx="182" cy="147" r="5" fill="#402A23"/>
  <path d="M149 169C157.667 175.667 167.333 175.667 178 169" stroke="#AA6B57" stroke-width="6" stroke-linecap="round"/>
  <path d="M214 111C210.667 95.6667 201 84.3333 185 77" stroke="#5A374B" stroke-width="14" stroke-linecap="round"/>
  <path d="M90 278H255" stroke="#E6B36D" stroke-width="10" stroke-linecap="round"/>
</svg>
