<svg width="320" height="320" viewBox="0 0 320 320" fill="none" xmlns="http://www.w3.org/2000/svg">
  <rect width="320" height="320" rx="48" fill="#101D29"/>
  <circle cx="160" cy="160" r="118" fill="#2E5662"/>
  <circle cx="246" cy="80" r="28" fill="#F2C56D"/>
  <path d="M235 70C240.333 66 246 65 252 67L247 77L255 85L264 81C265.333 87 264.333 92.3333 261 97L252 93L244 101L248 110C241 111.333 235.333 110 231 106L235 97L227 89L218 93C216 86.3333 217 80.6667 221 76L229 80L237 72L235 70Z" fill="#FFF4DE"/>
  <path d="M86 270C86 225.818 121.817 190 166 190H174C218.183 190 254 225.818 254 270V278H86V270Z" fill="#3F6670"/>
  <path d="M120 220L160 205L200 220L193 278H127L120 220Z" fill="#304A55"/>
  <path d="M132 229L148 244" stroke="#D8E6EA" stroke-width="5" stroke-linecap="round"/>
  <path d="M188 229L172 244" stroke="#D8E6EA" stroke-width="5" stroke-linecap="round"/>
  <circle cx="160" cy="143" r="63" fill="#8E5A42"/>
  <path d="M102 142C102 97.2649 138.265 61 183 61H194C194 79.2621 186.597 95.7973 173.623 107.773C163.126 117.464 157.877 131.578 159.375 150.114L102 142Z" fill="#231A16"/>
  <path d="M114 160C117.333 126.667 133 110 161 110C189 110 209.667 126.667 223 160L218 184C199.333 197.333 179.667 204 159 204C144.333 204 129.333 196 114 180V160Z" fill="#9C654A"/>
  <circle cx="144" cy="148" r="5" fill="#241A17"/>
  <circle cx="182" cy="148" r="5" fill="#241A17"/>
  <path d="M149 171C156.333 176.333 166 176.333 178 171" stroke="#6F3F2F" stroke-width="6" stroke-linecap="round"/>
  <path d="M109 113C122.333 100.333 134.333 94 145 94C155.667 94 164.667 96.6667 172 102" stroke="#231A16" stroke-width="18" stroke-linecap="round"/>
  <path d="M90 278H255" stroke="#D6B273" stroke-width="10" stroke-linecap="round"/>
</svg>
